<svg xmlns="http://www.w3.org/2000/svg" viewBox="0 0 512 512" width="512" height="512">

  <path fill="#00a07a" d="M108.3 191a65 65 0 1 0 0 130 65 65 0 0 0 0-130zm5 18.4V256c0 1.3-.5 2.6-1.5 3.5l-23.3 23.3c-1.9 1.9-5.1 1.9-7 0a5 5 0 0 1-1.5-3.5c0-1.4.5-2.6 1.5-3.5l21.8-21.9V209.4c0-2.8 2.3-5 5-5s5 2.2 5 5z"/>

  <path fill="#ffb742" d="M240.5 58.9c-35.9 0-65 29.1-65 65s29.1 65 65 65 65-29.2 65-65-29.2-65-65-65zm13.7 43h-15c-4.1 0-7.5 3.8-7.5 8.5 0 4.1 2.7 8.5 8.7 8.5 10.7 0 18.7 8 18.7 18.5 0 8.2-5 15.3-12.3 17.7l-1.4.5v8.2c0 2.8-2.2 5-5 5s-5-2.2-5-5v-7.9h-8.7c-2.8 0-5-2.2-5-5s2.2-5 5-5h12.9l.2-.1c.4 0 .9 0 1.3 0l.6.1c4.1 0 7.5-3.9 7.5-8.6 0-4.1-2.7-8.5-8.7-8.5-10.7 0-18.7-8-18.7-18.5 0-8.1 5.1-15.3 12.3-17.7l1.4-.5V84c0-2.8 2.2-5 5-5s5 2.2 5 5v7.9h8.7c2.8 0 5 2.2 5 5s-2.2 5-5 5z"/>

  <path fill="#8d8b84" d="M438.7 27.8c-16.5 0-30 13.5-30 30v119.1l8.8-9.8c1.9-2.1 5.4-2.1 7.4 0l13.8 15.3 13.8-15.3c2-2.2 5.4-2.2 7.4 0l8.8 9.8V57.8c0-16.5-13.5-30-30-30z"/>

  <path fill="#d9d6c7" d="M112.2 27.8c-16.5 0-30 13.5-30 30v127.9l2.6-.9a74.7 74.7 0 0 1 23.5-3.8c41.3 0 75 33.6 75 75s-33.7 75-75 75a74.8 74.8 0 0 1-23.5-3.8l-2.6-.9v131.8c0 14.4 11.7 26.1 26.1 26.1h115.6l-.1-2.1v-.7c0-.1 0-.2 0-.3V349.3c0-7 5.7-12.8 12.8-12.8h158.2V57.8c0-9.9 3.6-19.3 10.2-26.7l3-3.3zm128.3 171c-41.3 0-75-33.6-75-74.9 0-41.4 33.7-75 75-75s75 33.6 75 75-33.7 74.9-75 74.9zm31.1 62.2h-62.2c-2.8 0-5-2.2-5-5s2.2-5 5-5h62.2c2.8 0 5 2.2 5 5s-2.2 5-5 5zm-65 103.8c0 2.8-2.2 5-5 5H139.4c-2.8 0-5-2.2-5-5s2.2-5 5-5h62.2c2.8 0 5 2.2 5 5zm-5 36.1h-77.7c-2.8 0-5-2.2-5-5s2.2-5 5-5h77.7c2.8 0 5 2.2 5 5s-2.2 5-5 5zm-77.7 52.2h77.7c2.8 0 5 2.2 5 5s-2.2 5-5 5h-77.7c-2.8 0-5-2.2-5-5s2.2-5 5-5zm80.5-166c0-2.8 2.2-5 5-5h62.2c2.8 0 5 2.2 5 5s-2.2 5-5 5h-62.2c-2.8 0-5-2.2-5-5zm137.2-5h15.5c2.8 0 5 2.2 5 5s-2.2 5-5 5h-15.5c-2.8 0-5-2.2-5-5s2.2-5 5-5zm-31.1 25.4h-15.5c-2.8 0-5-2.2-5-5s2.2-5 5-5h15.5c2.8 0 5 2.2 5 5s-2.2 5-5 5zm0-31.1H209.4c-2.8 0-5-2.2-5-5s2.2-5 5-5h147.7c2.8 0 5 2.2 5 5s-2.2 5-5 5z"/>

  <path fill="#bdb9b0" d="M268.8 377.6h52.2v28.4h-52.2z"/>

  <path fill="#0d9bd8" d="M434.8 346.5H240.5c-1.6 0-2.8 1.2-2.8 2.8v132.1c0 1.6 1.2 2.8 2.8 2.8h194.3c1.6 0 2.8-1.2 2.8-2.8V349.3c0-1.6-1.2-2.8-2.8-2.8zM292.1 450.3v7.8c0 2.8-2.2 5-5 5s-5-2.2-5-5v-7.8c0-2.8 2.2-5 5-5s5 2.2 5 5zm28.9 0c0-2.8 2.2-5 5-5s5 2.2 5 5v7.8c0 2.8-2.2 5-5 5s-5-2.2-5-5zm5-34.3h-62.2c-2.8 0-5-2.2-5-5v-38.4c0-2.8 2.2-5 5-5h62.2c2.8 0 5 2.2 5 5v38.4c0 2.8-2.2 5-5 5zm-62.2 29.3c2.8 0 5 2.2 5 5v7.8c0 2.8-2.2 5-5 5s-5-2.2-5-5v-7.8c0-2.8 2.2-5 5-5zm80.5 12.8v-7.8c0-2.8 2.2-5 5-5s5 2.2 5 5v7.8c0 2.8-2.2 5-5 5s-5-2.2-5-5zm62.2-7.8c0-2.8 2.2-5 5-5s5 2.2 5 5v7.8c0 2.8-2.2 5-5 5s-5-2.2-5-5zm5-41.6h-15.6c-2.8 0-5-2.2-5-5s2.2-5 5-5h15.6c2.8 0 5 2.2 5 5s-2.2 5-5 5zm-28.3 41.6c0-2.8 2.2-5 5-5s5 2.2 5 5v7.8c0 2.8-2.2 5-5 5s-5-2.2-5-5zm28.3-72.7h-38.9c-2.8 0-5-2.2-5-5s2.2-5 5-5h38.9c2.8 0 5 2.2 5 5s-2.2 5-5 5z"/>

  <g fill="#443f3d">

    <path d="M115.3 209.4V256c0 1.9-.7 3.6-2.1 5l-23.3 23.3c-2.7 2.7-7.2 2.7-9.9 0a7 7 0 0 1 0-9.9l21.3-21.3v-43.7c0-3.9 3.1-7 7-7s7 3.1 7 7zm323.4-193.6H112.2c-23.2 0-42 18.8-42 42v131.4c-23.2 13.3-38.9 38.3-38.9 66.8s15.7 53.6 38.9 66.8v135.3c0 21 17.1 38.1 38.1 38.1h326.5c8.1 0 14.8-6.6 14.8-14.8V349.3c0-8.2-6.6-14.8-14.8-14.8h-24.1v-141.9l10.5-11.7 12.3 13.7a7 7 0 0 0 10.4 0l12.3-13.7 12.3 13.7c1.3 1.3 3.1 2.3 5.2 2.3.9 0 1.7-.2 2.5-.5a7 7 0 0 0 4.5-6.5V57.8c0-23.2-18.8-42-42-42zm28 155.9-5.3-5.9a7 7 0 0 0-10.4 0L438.7 183l-12.3-13.7a7 7 0 0 0-10.4 0l-5.3 5.9V57.8c0-15.4 12.6-28 28-28s28 12.6 28 28zm-31.1 177.6v132.2c0 .4-.3.8-.8.8H240.5c-.5 0-.8-.4-.8-.8V349.3c0-.5.3-.8.8-.8h194.3c.5 0 .8.3.8.8zm-209.9 0v132.2c0 .2 0 .5 0 .7H108.3c-13.3 0-24.1-10.8-24.1-24.1V329c7.6 2.5 15.7 3.9 24.1 3.9 42.4 0 77-34.5 77-77s-34.5-77-77-77a76.8 76.8 0 0 0-24.1 3.9V57.8c0-15.4 12.6-28 28-28h295.2c-6.7 7.4-10.7 17.2-10.7 28v276.7H240.5c-8.2 0-14.8 6.6-14.8 14.8zM45.4 256c0-34.7 28.2-63 63-63 34.6 0 63 28.3 63 63s-28.4 63-63 63c-34.8 0-63-28.3-63-63z"/>

    <path d="M240.5 46.9c-42.5 0-77 34.5-77 77s34.6 77 77 77 77-34.5 77-77-34.5-77-77-77zm0 139.9c-34.7 0-63-28.3-63-63s28.3-63 63-63 63 28.3 63 63-28.3 63-63 63zM261.2 137.4c0 9.2-5.8 17-13.7 19.6v6.8c0 3.9-3.1 7-7 7s-7-3.1-7-7v-5.9h-6.7c-3.9 0-7-3.1-7-7s3.1-7 7-7h12.9l.8-.1.9.1h.4c3 0 5.5-2.9 5.5-6.5 0-3.2-2.1-6.5-6.7-6.5-11.8 0-20.7-8.8-20.7-20.5 0-9.2 5.8-17 13.7-19.6v-6.8c0-3.9 3.1-7 7-7s7 3.1 7 7v5.9h6.7c3.9 0 7 3.1 7 7s-3.1 7-7 7h-15c-3 0-5.4 2.9-5.4 6.5 0 3.3 2 6.5 6.7 6.5 11.8 0 20.7 8.8 20.7 20.5zM326 365.6h-62.2c-3.9 0-7 3.1-7 7v38.4c0 3.9 3.1 7 7 7h62.2c3.9 0 7-3.1 7-7v-38.4c0-3.9-3.1-7-7-7zm-7 38.4h-48.2V379.6h48.2zM270.8 450.3v7.8c0 3.9-3.1 7-7 7s-7-3.1-7-7v-7.8c0-3.9 3.1-7 7-7s7 3.1 7 7zm23.3 0v7.8c0 3.9-3.1 7-7 7s-7-3.1-7-7v-7.8c0-3.9 3.1-7 7-7s7 3.1 7 7zm38.9 0v7.8c0 3.9-3.1 7-7 7s-7-3.1-7-7v-7.8c0-3.9 3.1-7 7-7s7 3.1 7 7zm23.3 0v7.8c0 3.9-3.1 7-7 7s-7-3.1-7-7v-7.8c0-3.9 3.1-7 7-7s7 3.1 7 7zm38.9 0v7.8c0 3.9-3.2 7-7 7s-7-3.1-7-7v-7.8c0-3.9 3.1-7 7-7s7 3.1 7 7zm23.3 0v7.8c0 3.9-3.1 7-7 7s-7-3.1-7-7v-7.8c0-3.9 3.1-7 7-7s7 3.1 7 7zm0-77.7c0 3.9-3.1 7-7 7H372.6c-3.9 0-7-3.1-7-7s3.1-7 7-7h38.9c3.8 0 7 3.1 7 7zm0 31.1c0 3.9-3.1 7-7 7h-15.5c-3.9 0-7-3.1-7-7s3.1-7 7-7h15.5c3.8 0 7 3.1 7 7zm-210-7.8c0 3.9-3.1 7-7 7h-77.7a7 7 0 0 1 0-14h77.7c3.9 0 7 3.1 7 7zm0-31.1c0 3.9-3.1 7-7 7H139.4c-3.9 0-7-3.1-7-7s3.1-7 7-7h62.2c3.9 0 7 3.1 7 7zm0 93.3c0 3.9-3.1 7-7 7h-77.7a7 7 0 0 1 0-14h77.7c3.9 0 7 3.1 7 7zm155.5-233.2c0 3.9-3.1 7-7 7H209.4a7 7 0 0 1 0-14h147.7c3.9 0 7 3.1 7 7zm0 31.1c0 3.9-3.1 7-7 7h-15.5c-3.9 0-7-3.1-7-7s3.1-7 7-7h15.5c3.9 0 7 3.1 7 7zm-85.5 0c0 3.9-3.1 7-7 7h-62.2c-3.9 0-7-3.1-7-7s3.1-7 7-7h62.2c3.9 0 7 3.1 7 7zm85.5 31.1c0 3.9-3.1 7-7 7h-15.5c-3.9 0-7-3.1-7-7s3.1-7 7-7h15.5c3.9 0 7 3.1 7 7zm-85.5 0c0 3.9-3.1 7-7 7h-62.2c-3.9 0-7-3.1-7-7s3.1-7 7-7h62.2c3.9 0 7 3.1 7 7z"/>

  </g>

</svg>

