<svg xmlns="http://www.w3.org/2000/svg" version="1.1" xmlns:xlink="http://www.w3.org/1999/xlink" width="512" height="512" x="0" y="0" viewBox="0 0 512 512" style="enable-background:new 0 0 512 512" xml:space="preserve" class=""><g transform="matrix(1.0000000000000004,0,0,1.0000000000000004,-5.684341886080802e-14,-5.684341886080802e-14)"><path fill="#00a07a" d="M108.31 191.04c-35.819 0-64.96 29.14-64.96 64.96s29.141 64.96 64.96 64.96 64.96-29.14 64.96-64.96-29.141-64.96-64.96-64.96zm5 18.32V256c0 1.336-.52 2.592-1.464 3.536l-23.32 23.32c-.944.944-2.2 1.464-3.536 1.464s-2.592-.52-3.536-1.465a4.966 4.966 0 0 1-1.461-3.535c0-1.338.519-2.594 1.461-3.536l21.856-21.856V209.36c0-2.756 2.243-5 5-5s5 2.244 5 5z" opacity="1" data-original="#00a07a" class=""></path><path fill="#ffb742" d="M240.45 58.89c-35.819 0-64.96 29.145-64.96 64.97 0 35.814 29.141 64.95 64.96 64.95 35.824 0 64.97-29.136 64.97-64.95 0-35.825-29.146-64.97-64.97-64.97zm13.72 42.95h-14.96c-4.119 0-7.47 3.822-7.47 8.52 0 4.104 2.726 8.52 8.71 8.52 10.672 0 18.72 7.962 18.72 18.52 0 8.175-4.96 15.292-12.342 17.71l-1.378.45v8.22c0 2.757-2.243 5-5 5s-5-2.243-5-5v-7.86h-8.71c-2.757 0-5-2.243-5-5s2.243-5 5-5h12.85l.215-.012c.43-.046.876-.045 1.307.001l.588.01c4.119 0 7.47-3.822 7.47-8.519 0-4.103-2.729-8.52-8.72-8.52-10.666 0-18.71-7.962-18.71-18.52 0-8.05 5.07-15.328 12.331-17.699l1.38-.45V83.93c0-2.757 2.242-5 5-5s5 2.243 5 5v7.91h8.719c2.757 0 5 2.243 5 5s-2.243 5-5 5z" opacity="1" data-original="#ffb742" class=""></path><path fill="#8d8b84" d="M438.67 27.8c-16.531 0-29.98 13.449-29.98 29.98v119.122l8.778-9.754a4.997 4.997 0 0 1 7.436.001l13.765 15.3 13.779-15.301a4.996 4.996 0 0 1 3.712-1.658c1.42 0 2.772.602 3.713 1.659l8.777 9.753V57.78c0-16.531-13.449-29.98-29.98-29.98z" opacity="1" data-original="#8d8b84" class=""></path><path fill="#d9d6c7" d="M112.2 27.8c-16.53 0-29.98 13.45-29.98 29.98v127.91l2.63-.87a74.67 74.67 0 0 1 23.46-3.78c41.33 0 74.96 33.63 74.96 74.96s-33.63 74.96-74.96 74.96c-7.97 0-15.86-1.27-23.46-3.78l-2.63-.87v131.8c0 14.39 11.7 26.09 26.09 26.09H227.8l-.08-2.08c-.01-.12-.01-.25-.02-.37-.01-.11-.02-.21-.02-.32V349.28c0-7.04 5.73-12.77 12.77-12.77h158.24V57.78c0-9.84 3.63-19.3 10.21-26.65l2.99-3.33zm128.25 171.01c-41.33 0-74.96-33.62-74.96-74.95 0-41.34 33.63-74.97 74.96-74.97 41.34 0 74.97 33.63 74.97 74.97 0 41.33-33.63 74.95-74.97 74.95zm31.1 62.19h-62.19c-2.76 0-5-2.24-5-5s2.24-5 5-5h62.19c2.76 0 5 2.24 5 5s-2.24 5-5 5zm-64.96 103.82c0 2.76-2.24 5-5 5H139.4c-2.76 0-5-2.24-5-5s2.24-5 5-5h62.19c2.76 0 5 2.24 5 5zm-5 36.1h-77.73c-2.76 0-5-2.24-5-5s2.24-5 5-5h77.73c2.76 0 5 2.24 5 5s-2.24 5-5 5zm-77.73 52.19h77.73c2.76 0 5 2.24 5 5s-2.24 5-5 5h-77.73c-2.76 0-5-2.24-5-5s2.24-5 5-5zm80.5-166.02c0-2.76 2.24-5 5-5h62.19c2.76 0 5 2.24 5 5s-2.24 5-5 5h-62.19c-2.76 0-5-2.24-5-5zm137.15-5h15.54c2.76 0 5 2.24 5 5s-2.24 5-5 5h-15.54c-2.76 0-5-2.24-5-5s2.24-5 5-5zM357.05 261h-15.54c-2.76 0-5-2.24-5-5s2.24-5 5-5h15.54c2.76 0 5 2.24 5 5s-2.24 5-5 5zm0-31.09H209.36c-2.76 0-5-2.24-5-5s2.24-5 5-5h147.69c2.76 0 5 2.24 5 5s-2.24 5-5 5z" opacity="1" data-original="#d9d6c7" class=""></path><path fill="#bdb9b0" d="M268.77 377.6h52.19v28.431h-52.19z" opacity="1" data-original="#bdb9b0"></path><path fill="#0d9bd8" d="M434.79 346.51H240.45c-1.55 0-2.77 1.22-2.77 2.77v132.15c0 1.55 1.22 2.77 2.77 2.77h194.34c1.55 0 2.77-1.22 2.77-2.77V349.28c0-1.55-1.22-2.77-2.77-2.77zM292.1 450.33v7.78c0 2.76-2.24 5-5 5s-5-2.24-5-5v-7.78c0-2.76 2.24-5 5-5s5 2.24 5 5zm28.86 0c0-2.76 2.24-5 5-5s5 2.24 5 5v7.78c0 2.76-2.24 5-5 5s-5-2.24-5-5zm5-34.3h-62.19c-2.76 0-5-2.24-5-5V372.6c0-2.76 2.24-5 5-5h62.19c2.76 0 5 2.24 5 5v38.43c0 2.76-2.24 5-5 5zm-62.19 29.3c2.76 0 5 2.24 5 5v7.78c0 2.76-2.24 5-5 5s-5-2.24-5-5v-7.78c0-2.76 2.24-5 5-5zm80.51 12.78v-7.78c0-2.76 2.24-5 5-5s5 2.24 5 5v7.78c0 2.76-2.24 5-5 5s-5-2.24-5-5zm62.19-7.78c0-2.76 2.24-5 5-5s5 2.24 5 5v7.78c0 2.76-2.24 5-5 5s-5-2.24-5-5zm5-41.64h-15.55c-2.76 0-5-2.24-5-5s2.24-5 5-5h15.55c2.76 0 5 2.24 5 5s-2.24 5-5 5zm-28.32 41.64c0-2.76 2.24-5 5-5s5 2.24 5 5v7.78c0 2.76-2.24 5-5 5s-5-2.24-5-5zm28.32-72.73H372.6c-2.76 0-5-2.24-5-5s2.24-5 5-5h38.87c2.76 0 5 2.24 5 5s-2.24 5-5 5z" opacity="1" data-original="#0d9bd8" class=""></path><g fill="#443f3d"><path d="M115.31 209.36V256c0 1.86-.74 3.64-2.05 4.95l-23.32 23.32c-1.37 1.37-3.16 2.05-4.95 2.05s-3.58-.68-4.95-2.05a7.007 7.007 0 0 1 0-9.9l21.27-21.27v-43.74c0-3.87 3.13-7 7-7s7 3.13 7 7z" fill="#443f3d" opacity="1" data-original="#443f3d" class=""></path><path d="M438.67 15.8H112.2c-23.15 0-41.98 18.83-41.98 41.98v131.39c-23.2 13.27-38.87 38.25-38.87 66.83s15.67 53.56 38.87 66.83v135.28c0 21 17.08 38.09 38.09 38.09h326.48c8.14 0 14.77-6.63 14.77-14.77V349.28c0-8.15-6.63-14.77-14.77-14.77h-24.1v-141.9l10.49-11.65 12.29 13.65a7.025 7.025 0 0 0 5.2 2.32c1.99 0 3.88-.85 5.21-2.32l12.28-13.65 12.29 13.65a7.013 7.013 0 0 0 5.2 2.32c.85 0 1.69-.16 2.51-.47a6.995 6.995 0 0 0 4.49-6.53V57.78c0-23.15-18.83-41.98-41.98-41.98zm27.98 155.89-5.29-5.88a6.957 6.957 0 0 0-5.2-2.32c-1.98 0-3.87.84-5.2 2.32l-12.29 13.65-12.28-13.65a6.989 6.989 0 0 0-5.2-2.32c-1.99 0-3.88.84-5.21 2.32l-5.29 5.88V57.78c0-15.43 12.55-27.98 27.98-27.98s27.98 12.55 27.98 27.98zm-31.09 177.59v132.15c0 .44-.33.77-.77.77H240.45c-.44 0-.77-.33-.77-.77V349.28c0-.44.33-.77.77-.77h194.34c.44 0 .77.33.77.77zm-209.88 0v132.15c0 .26.03.51.04.77H108.31c-13.29 0-24.09-10.81-24.09-24.09V329.08c7.58 2.5 15.68 3.88 24.09 3.88 42.43 0 76.96-34.52 76.96-76.96s-34.53-76.96-76.96-76.96a76.8 76.8 0 0 0-24.09 3.88V57.78c0-15.43 12.55-27.98 27.98-27.98h295.21c-6.66 7.43-10.72 17.24-10.72 27.98v276.73H240.45c-8.14 0-14.77 6.62-14.77 14.77zM45.35 256c0-34.72 28.24-62.96 62.96-62.96 34.71 0 62.96 28.24 62.96 62.96s-28.25 62.96-62.96 62.96c-34.72 0-62.96-28.24-62.96-62.96z" fill="#443f3d" opacity="1" data-original="#443f3d" class=""></path><path d="M240.45 46.89c-42.43 0-76.96 34.53-76.96 76.97 0 42.43 34.53 76.95 76.96 76.95 42.44 0 76.97-34.52 76.97-76.95 0-42.44-34.53-76.97-76.97-76.97zm0 139.92c-34.71 0-62.96-28.24-62.96-62.95 0-34.72 28.25-62.97 62.96-62.97 34.72 0 62.97 28.25 62.97 62.97 0 34.71-28.25 62.95-62.97 62.95z" fill="#443f3d" opacity="1" data-original="#443f3d" class=""></path><path d="M261.17 137.4c0 9.21-5.78 17.01-13.72 19.61v6.77c0 3.86-3.13 7-7 7-3.86 0-7-3.14-7-7v-5.86h-6.71c-3.86 0-7-3.13-7-7 0-3.86 3.14-7 7-7h12.85c.28-.03.57-.06.86-.06.3 0 .58.03.87.06h.38c3.01 0 5.47-2.92 5.47-6.52 0-3.24-2.08-6.52-6.72-6.52-11.8 0-20.71-8.82-20.71-20.52 0-9.2 5.78-17.01 13.71-19.6v-6.83c0-3.87 3.14-7 7-7 3.87 0 7 3.13 7 7v5.91h6.72c3.86 0 7 3.14 7 7 0 3.87-3.14 7-7 7h-14.96c-3.02 0-5.47 2.93-5.47 6.52 0 3.25 2.08 6.52 6.71 6.52 11.81 0 20.72 8.82 20.72 20.52zM325.96 365.6h-62.19c-3.86 0-7 3.13-7 7v38.43c0 3.87 3.14 7 7 7h62.19c3.87 0 7-3.13 7-7V372.6c0-3.87-3.13-7-7-7zm-7 38.43h-48.19V379.6h48.19zM270.77 450.33v7.78c0 3.86-3.13 7-7 7-3.86 0-7-3.14-7-7v-7.78c0-3.86 3.14-7 7-7 3.87 0 7 3.14 7 7zM294.1 450.33v7.78c0 3.86-3.14 7-7 7-3.87 0-7-3.14-7-7v-7.78c0-3.86 3.13-7 7-7 3.86 0 7 3.14 7 7zM332.96 450.33v7.78c0 3.86-3.13 7-7 7-3.86 0-7-3.14-7-7v-7.78c0-3.86 3.14-7 7-7 3.87 0 7 3.14 7 7zM356.28 450.33v7.78c0 3.86-3.13 7-7 7-3.86 0-7-3.14-7-7v-7.78c0-3.86 3.14-7 7-7 3.87 0 7 3.14 7 7zM395.15 450.33v7.78c0 3.86-3.14 7-7 7-3.87 0-7-3.14-7-7v-7.78c0-3.86 3.13-7 7-7 3.86 0 7 3.14 7 7zM418.47 450.33v7.78c0 3.86-3.14 7-7 7-3.87 0-7-3.14-7-7v-7.78c0-3.86 3.13-7 7-7 3.86 0 7 3.14 7 7zM418.47 372.6c0 3.86-3.14 7-7 7H372.6c-3.87 0-7-3.14-7-7 0-3.87 3.13-7 7-7h38.87c3.86 0 7 3.13 7 7zM418.47 403.69c0 3.87-3.14 7-7 7h-15.55c-3.87 0-7-3.13-7-7 0-3.86 3.13-7 7-7h15.55c3.86 0 7 3.14 7 7zM208.59 395.92c0 3.86-3.14 7-7 7h-77.73a7.001 7.001 0 0 1 0-14h77.73c3.86 0 7 3.13 7 7zM208.59 364.82c0 3.87-3.14 7-7 7H139.4c-3.86 0-7-3.13-7-7 0-3.86 3.14-7 7-7h62.19c3.86 0 7 3.14 7 7zM208.59 458.11c0 3.86-3.14 7-7 7h-77.73a7.001 7.001 0 0 1 0-14h77.73c3.86 0 7 3.13 7 7zM364.05 224.91c0 3.86-3.13 7-7 7H209.36a7.001 7.001 0 0 1 0-14h147.69c3.87 0 7 3.13 7 7zM364.05 256c0 3.87-3.13 7-7 7h-15.54c-3.87 0-7-3.13-7-7s3.13-7 7-7h15.54c3.87 0 7 3.13 7 7zM278.55 256c0 3.87-3.14 7-7 7h-62.19c-3.87 0-7-3.13-7-7s3.13-7 7-7h62.19c3.86 0 7 3.13 7 7zM364.05 287.09c0 3.87-3.13 7-7 7h-15.54c-3.87 0-7-3.13-7-7 0-3.86 3.13-7 7-7h15.54c3.87 0 7 3.14 7 7zM278.55 287.09c0 3.87-3.14 7-7 7h-62.19c-3.87 0-7-3.13-7-7 0-3.86 3.13-7 7-7h62.19c3.86 0 7 3.14 7 7z" fill="#443f3d" opacity="1" data-original="#443f3d" class=""></path></g></g></svg>
